<svg width="82" height="77" viewBox="0 0 82 77" fill="none" xmlns="http://www.w3.org/2000/svg">
<g clip-path="url(#clip0_1_257)">
<path d="M77.443 77.8412H70.9604V74.6534C70.9604 74.4344 70.7826 74.2566 70.5635 74.2566C70.3444 74.2566 70.1666 74.4344 70.1666 74.6534V77.8412H63.0229V74.6534C63.0229 74.4344 62.8451 74.2566 62.626 74.2566C62.4069 74.2566 62.2291 74.4344 62.2291 74.6534V77.8412H55.0853V74.6534C55.0853 74.4344 54.9075 74.2566 54.6884 74.2566C54.4694 74.2566 54.2916 74.4344 54.2916 74.6534V77.8412H47.1478V74.6534C47.1478 74.4344 46.97 74.2566 46.7509 74.2566C46.5318 74.2566 46.354 74.4344 46.354 74.6534V77.8412H39.2103V74.6534C39.2103 74.4344 39.0325 74.2566 38.8134 74.2566C38.5943 74.2566 38.4165 74.4344 38.4165 74.6534V77.8412H31.2727V74.6534C31.2727 74.4344 31.0949 74.2566 30.8759 74.2566C30.6568 74.2566 30.479 74.4344 30.479 74.6534V77.8412H23.3352V74.6534C23.3352 74.4344 23.1574 74.2566 22.9383 74.2566C22.7192 74.2566 22.5414 74.4344 22.5414 74.6534V77.8412H15.3977V74.6534C15.3977 74.4344 15.2199 74.2566 15.0008 74.2566C14.7817 74.2566 14.6039 74.4344 14.6039 74.6534V77.8412H5.60831V63.4218H9.44531C9.66359 63.4218 9.84219 63.2432 9.84219 63.025C9.84219 62.8067 9.66359 62.6281 9.44531 62.6281H5.60831V55.4843H9.44531C9.66359 55.4843 9.84219 55.3057 9.84219 55.0874C9.84219 54.8691 9.66359 54.6905 9.44531 54.6905H5.60831V47.5468H9.44531C9.66359 47.5468 9.84219 47.3682 9.84219 47.1499C9.84219 46.9316 9.66359 46.753 9.44531 46.753H5.60831V39.6092H9.44531C9.66359 39.6092 9.84219 39.4314 9.84219 39.2124C9.84219 38.9933 9.66359 38.8155 9.44531 38.8155H5.60831V31.6717H9.44531C9.66359 31.6717 9.84219 31.4939 9.84219 31.2748C9.84219 31.0558 9.66359 30.878 9.44531 30.878H5.60831V23.7342H9.44531C9.66359 23.7342 9.84219 23.5564 9.84219 23.3373C9.84219 23.1182 9.66359 22.9404 9.44531 22.9404H5.60831V15.7966H9.44531C9.66359 15.7966 9.84219 15.6188 9.84219 15.3998C9.84219 15.1807 9.66359 15.0029 9.44531 15.0029H5.60831V7.85911H9.44531C9.66359 7.85911 9.84219 7.68131 9.84219 7.46223C9.84219 7.24316 9.66359 7.06536 9.44531 7.06536H5.60831V1.41304C5.60831 0.755814 5.07491 0.222412 4.41768 0.222412C3.76045 0.222412 3.22705 0.755814 3.22705 1.41304V79.0318C3.22705 79.689 3.76045 80.2224 4.41768 80.2224H77.443C78.1002 80.2224 78.6336 79.689 78.6336 79.0318C78.6336 78.3746 78.1002 77.8412 77.443 77.8412Z" fill="#FFF8F8"/>
<path d="M36.8254 26.9441L53.6855 35.1396L75.7534 20.8528L75.3661 28.5816L76.952 28.661L77.4759 18.2001L66.2117 17.6484L66.1331 19.2344L74.6842 19.6527L53.5736 33.3203L36.3023 24.9248L25.2437 40.6943L12.7493 33.541L11.9595 34.9189L25.7128 42.7922L36.8254 26.9441Z" fill="white"/>
<path d="M75.6354 45.3377L78.5191 35.269L67.6733 32.1765L67.2375 33.7029L75.2742 35.9945L54.1763 45.4076L40.9785 33.1925L22.7286 47.2412L12.8805 45.5632L12.6138 47.1284L23.1485 48.9223L40.8825 35.2682L53.8667 47.2832L76.291 37.2788L74.1098 44.9012L75.6354 45.3377Z" fill="white"/>
</g>
<defs>
<clipPath id="clip0_1_257">
<rect width="80.7083" height="76.5445" fill="white" transform="translate(0.930176 0.222412)"/>
</clipPath>
</defs>
</svg>
