<?xml version="1.0" standalone="no"?>
<!DOCTYPE svg PUBLIC "-//W3C//DTD SVG 20010904//EN"
 "http://www.w3.org/TR/2001/REC-SVG-20010904/DTD/svg10.dtd">
<svg version="1.0" xmlns="http://www.w3.org/2000/svg"
 width="30px" height="30px" viewBox="0 0 900.000000 900.000000"
 preserveAspectRatio="xMidYMid meet">

<g transform="translate(0.000000,900.000000) scale(0.100000,-0.100000)"
fill="#000000" stroke="none">
<path d="M6090 6583 c-78 -8 -231 -36 -322 -59 -739 -186 -1192 -759 -1279
-1618 -17 -175 -7 -575 20 -736 70 -426 209 -720 455 -965 124 -124 235 -202
390 -276 277 -131 572 -189 966 -189 278 0 447 24 775 108 142 37 198 46 263
47 l83 0 35 -40 c19 -22 40 -46 45 -52 15 -20 39 -15 48 10 9 27 44 1153 36
1167 -7 12 -65 13 -80 2 -6 -4 -26 -41 -44 -82 -18 -41 -65 -138 -105 -215
-308 -595 -628 -867 -992 -841 -169 12 -292 66 -416 185 -166 158 -272 380
-338 711 -52 261 -70 510 -70 972 0 569 36 898 130 1179 105 317 264 498 500
571 63 19 96 23 205 22 113 0 140 -4 205 -26 95 -33 186 -84 264 -149 183
-153 375 -433 551 -806 l58 -123 50 0 50 0 -6 78 c-4 42 -14 301 -24 575 l-17
497 -24 0 c-16 0 -40 -17 -71 -50 l-47 -50 -65 0 c-46 0 -117 14 -249 50 -329
89 -484 111 -769 108 -97 0 -192 -3 -211 -5z"/>
<path d="M330 6490 l0 -50 175 0 175 0 0 -1775 0 -1775 -175 0 -175 0 0 -51 0
-51 928 5 c788 3 947 6 1062 21 451 56 760 156 1030 334 123 81 301 262 384
389 140 213 226 458 273 772 22 147 25 635 5 781 -45 316 -128 562 -257 755
-242 364 -623 569 -1215 655 -214 31 -520 39 -1412 40 l-798 0 0 -50z m1752
-64 c69 -8 161 -24 204 -36 370 -104 551 -383 620 -958 39 -327 38 -1141 -1
-1462 -78 -633 -284 -949 -687 -1051 -67 -17 -124 -22 -290 -26 l-208 -5 0
1776 0 1776 118 0 c64 0 174 -7 244 -14z"/>
</g>
</svg>
