<svg width="127" height="25" viewBox="0 0 127 25" fill="none" xmlns="http://www.w3.org/2000/svg">
<path d="M0.430176 18V0.499999H6.18018C7.56351 0.499999 8.83018 0.724999 9.98018 1.175C11.1302 1.60833 12.1135 2.21667 12.9302 3C13.7635 3.76667 14.4052 4.68333 14.8552 5.75C15.3218 6.81667 15.5552 7.96667 15.5552 9.2C15.5552 10.4833 15.3135 11.6667 14.8302 12.75C14.3635 13.8167 13.7135 14.7417 12.8802 15.525C12.0635 16.3083 11.1052 16.9167 10.0052 17.35C8.90518 17.7833 7.73018 18 6.48018 18H0.430176ZM2.70518 16.9H5.45518C6.82184 16.9 7.98018 16.675 8.93018 16.225C9.89684 15.7583 10.6885 15.1583 11.3052 14.425C11.9218 13.6917 12.3718 12.875 12.6552 11.975C12.9385 11.0583 13.0802 10.15 13.0802 9.25C13.0802 8.25 12.9135 7.29167 12.5802 6.375C12.2468 5.44167 11.7552 4.625 11.1052 3.925C10.4718 3.20833 9.68018 2.64167 8.73018 2.225C7.78018 1.80833 6.68851 1.6 5.45518 1.6H2.70518V16.9ZM19.0964 5.5H21.2214V18H19.0964V5.5ZM18.7964 1.55C18.7964 1.18333 18.9297 0.866666 19.1964 0.599999C19.4631 0.333333 19.7797 0.2 20.1464 0.2C20.5131 0.2 20.8297 0.333333 21.0964 0.599999C21.3631 0.866666 21.4964 1.18333 21.4964 1.55C21.4964 1.91667 21.3631 2.23333 21.0964 2.5C20.8297 2.76667 20.5131 2.9 20.1464 2.9C19.7797 2.9 19.4631 2.76667 19.1964 2.5C18.9297 2.23333 18.7964 1.91667 18.7964 1.55ZM37.0868 12.3H27.5868C27.5868 13.3167 27.7368 14.15 28.0368 14.8C28.3368 15.45 28.7118 15.9583 29.1618 16.325C29.6118 16.6917 30.0952 16.95 30.6118 17.1C31.1452 17.2333 31.6452 17.3 32.1118 17.3C32.5285 17.3 32.9035 17.2583 33.2368 17.175C33.5868 17.075 33.9202 16.9417 34.2368 16.775C34.5535 16.6083 34.8618 16.4 35.1618 16.15C35.4785 15.9 35.8118 15.625 36.1618 15.325L36.9618 16.125C36.2952 16.825 35.5118 17.3667 34.6118 17.75C33.7118 18.1167 32.7285 18.3 31.6618 18.3C30.5618 18.3 29.6035 18.1167 28.7868 17.75C27.9868 17.3667 27.3201 16.8667 26.7868 16.25C26.2701 15.6167 25.8785 14.9083 25.6118 14.125C25.3618 13.325 25.2368 12.5083 25.2368 11.675C25.2368 10.675 25.3868 9.78333 25.6868 9C25.9868 8.2 26.4035 7.525 26.9368 6.975C27.4701 6.40833 28.0951 5.98333 28.8118 5.7C29.5285 5.4 30.3118 5.25 31.1618 5.25C31.9618 5.25 32.7202 5.38333 33.4368 5.65C34.1535 5.91667 34.7785 6.31667 35.3118 6.85C35.8618 7.38333 36.2952 8.05833 36.6118 8.875C36.9285 9.69167 37.0868 10.6583 37.0868 11.775V12.3ZM27.5868 11.3H34.9118C34.9118 9.68333 34.5785 8.41667 33.9118 7.5C33.2618 6.56667 32.3451 6.1 31.1618 6.1C30.5451 6.1 30.0118 6.25 29.5618 6.55C29.1118 6.83333 28.7368 7.21667 28.4368 7.7C28.1535 8.18333 27.9368 8.74167 27.7868 9.375C27.6535 9.99167 27.5868 10.6333 27.5868 11.3ZM48.3173 8.35H46.8923C46.8923 8.13333 46.834 7.9 46.7173 7.65C46.6006 7.4 46.4173 7.175 46.1673 6.975C45.9173 6.75833 45.609 6.58333 45.2423 6.45C44.8756 6.3 44.4423 6.225 43.9423 6.225C43.4423 6.225 43.0256 6.3 42.6923 6.45C42.359 6.58333 42.0923 6.75833 41.8923 6.975C41.6923 7.175 41.5506 7.4 41.4673 7.65C41.384 7.88333 41.3423 8.10833 41.3423 8.325C41.3423 8.84167 41.5256 9.24167 41.8923 9.525C42.2756 9.80833 42.7506 10.05 43.3173 10.25C43.884 10.45 44.4923 10.6417 45.1423 10.825C45.809 11.0083 46.4256 11.25 46.9923 11.55C47.559 11.8333 48.0256 12.2167 48.3923 12.7C48.7756 13.1833 48.9673 13.825 48.9673 14.625C48.9673 15.725 48.5756 16.6167 47.7923 17.3C47.0256 17.9667 45.8756 18.3 44.3423 18.3C43.4923 18.3 42.7423 18.2 42.0923 18C41.459 17.7833 40.9173 17.5 40.4673 17.15C40.034 16.8 39.709 16.4083 39.4923 15.975C39.2756 15.525 39.1673 15.0667 39.1673 14.6H40.7923C40.7923 14.8 40.8506 15.05 40.9673 15.35C41.1006 15.65 41.309 15.95 41.5923 16.25C41.8923 16.5333 42.2673 16.7833 42.7173 17C43.184 17.2 43.7506 17.3 44.4173 17.3C44.9506 17.3 45.3923 17.2333 45.7423 17.1C46.0923 16.95 46.3673 16.775 46.5673 16.575C46.7673 16.3583 46.9006 16.125 46.9673 15.875C47.0506 15.625 47.0923 15.3833 47.0923 15.15C47.0923 14.6 46.909 14.1667 46.5423 13.85C46.1756 13.5333 45.7173 13.275 45.1673 13.075C44.6173 12.8583 44.0173 12.6667 43.3673 12.5C42.734 12.3167 42.1423 12.0833 41.5923 11.8C41.0423 11.5167 40.584 11.1417 40.2173 10.675C39.8506 10.2083 39.6673 9.575 39.6673 8.775C39.6673 8.19167 39.7756 7.68333 39.9923 7.25C40.209 6.8 40.5006 6.425 40.8673 6.125C41.2506 5.825 41.6923 5.6 42.1923 5.45C42.709 5.3 43.259 5.225 43.8423 5.225C44.459 5.225 45.034 5.30833 45.5673 5.475C46.1173 5.625 46.5923 5.84167 46.9923 6.125C47.409 6.39167 47.734 6.71667 47.9673 7.1C48.2006 7.48333 48.3173 7.9 48.3173 8.35ZM63.454 12.3H53.954C53.954 13.3167 54.104 14.15 54.404 14.8C54.704 15.45 55.079 15.9583 55.529 16.325C55.979 16.6917 56.4623 16.95 56.979 17.1C57.5123 17.2333 58.0123 17.3 58.479 17.3C58.8957 17.3 59.2707 17.2583 59.604 17.175C59.954 17.075 60.2873 16.9417 60.604 16.775C60.9207 16.6083 61.229 16.4 61.529 16.15C61.8457 15.9 62.179 15.625 62.529 15.325L63.329 16.125C62.6623 16.825 61.879 17.3667 60.979 17.75C60.079 18.1167 59.0957 18.3 58.029 18.3C56.929 18.3 55.9707 18.1167 55.154 17.75C54.354 17.3667 53.6873 16.8667 53.154 16.25C52.6373 15.6167 52.2457 14.9083 51.979 14.125C51.729 13.325 51.604 12.5083 51.604 11.675C51.604 10.675 51.754 9.78333 52.054 9C52.354 8.2 52.7707 7.525 53.304 6.975C53.8373 6.40833 54.4623 5.98333 55.179 5.7C55.8957 5.4 56.679 5.25 57.529 5.25C58.329 5.25 59.0873 5.38333 59.804 5.65C60.5207 5.91667 61.1457 6.31667 61.679 6.85C62.229 7.38333 62.6623 8.05833 62.979 8.875C63.2957 9.69167 63.454 10.6583 63.454 11.775V12.3ZM53.954 11.3H61.279C61.279 9.68333 60.9457 8.41667 60.279 7.5C59.629 6.56667 58.7123 6.1 57.529 6.1C56.9123 6.1 56.379 6.25 55.929 6.55C55.479 6.83333 55.104 7.21667 54.804 7.7C54.5207 8.18333 54.304 8.74167 54.154 9.375C54.0207 9.99167 53.954 10.6333 53.954 11.3ZM69.3345 0.499999V18H67.2095V0.499999H69.3345Z" fill="#0054F2"/>
<path d="M89.5634 14.775L90.3134 15.45C90.0967 15.7 89.78 15.9917 89.3634 16.325C88.9467 16.6583 88.4217 16.975 87.7884 17.275C87.1717 17.5583 86.4384 17.8 85.5884 18C84.755 18.2 83.805 18.3 82.7384 18.3C81.055 18.3 79.605 18.0417 78.3884 17.525C77.1717 16.9917 76.1717 16.3 75.3884 15.45C74.605 14.5833 74.0217 13.6 73.6384 12.5C73.2717 11.3833 73.0884 10.2417 73.0884 9.075C73.0884 7.725 73.3217 6.50833 73.7884 5.425C74.255 4.325 74.9134 3.39167 75.7634 2.625C76.6134 1.84167 77.63 1.24167 78.8134 0.824999C80.0134 0.408333 81.3384 0.2 82.7884 0.2C83.7884 0.2 84.68 0.299999 85.4634 0.499999C86.2467 0.699999 86.93 0.974999 87.5134 1.325C88.0967 1.675 88.58 2.09167 88.9634 2.575C89.3634 3.05833 89.6884 3.58333 89.9384 4.15H88.0884C87.9717 3.8 87.7634 3.45833 87.4634 3.125C87.18 2.775 86.805 2.46667 86.3384 2.2C85.8884 1.93333 85.3634 1.71667 84.7634 1.55C84.18 1.38333 83.53 1.3 82.8134 1.3C81.7634 1.3 80.7884 1.49167 79.8884 1.875C79.005 2.25833 78.2384 2.79167 77.5884 3.475C76.9384 4.15833 76.43 4.975 76.0634 5.925C75.7134 6.85833 75.5384 7.89167 75.5384 9.025C75.5384 10.0917 75.705 11.1167 76.0384 12.1C76.3884 13.0833 76.8967 13.95 77.5634 14.7C78.23 15.45 79.0634 16.05 80.0634 16.5C81.0634 16.95 82.2134 17.175 83.5134 17.175C85.8467 17.175 87.8634 16.375 89.5634 14.775ZM92.8081 0.499999H94.9331V7.2H95.0331L95.3081 6.85C95.8748 6.21667 96.4748 5.79167 97.1081 5.575C97.7581 5.34167 98.3748 5.225 98.9581 5.225C99.3914 5.225 99.8414 5.28333 100.308 5.4C100.791 5.51667 101.233 5.74167 101.633 6.075C102.033 6.40833 102.366 6.875 102.633 7.475C102.9 8.05833 103.033 8.81667 103.033 9.75V18H100.908V10.325C100.908 9.825 100.875 9.34167 100.808 8.875C100.758 8.40833 100.641 8 100.458 7.65C100.275 7.3 100.008 7.025 99.6581 6.825C99.3248 6.60833 98.8748 6.5 98.3081 6.5C97.5081 6.5 96.8831 6.66667 96.4331 7C95.9831 7.31667 95.6414 7.7 95.4081 8.15C95.1914 8.6 95.0581 9.06667 95.0081 9.55C94.9581 10.0333 94.9331 10.4417 94.9331 10.775V18H92.8081V0.499999ZM107.842 5.5H109.967V18H107.842V5.5ZM107.542 1.55C107.542 1.18333 107.675 0.866666 107.942 0.599999C108.208 0.333333 108.525 0.2 108.892 0.2C109.258 0.2 109.575 0.333333 109.842 0.599999C110.108 0.866666 110.242 1.18333 110.242 1.55C110.242 1.91667 110.108 2.23333 109.842 2.5C109.575 2.76667 109.258 2.9 108.892 2.9C108.525 2.9 108.208 2.76667 107.942 2.5C107.675 2.23333 107.542 1.91667 107.542 1.55ZM114.732 24.25V5.5H116.857V7.525H116.957C117.574 5.99167 118.874 5.225 120.857 5.225C121.69 5.225 122.457 5.38333 123.157 5.7C123.857 6 124.457 6.44167 124.957 7.025C125.474 7.59167 125.874 8.275 126.157 9.075C126.44 9.875 126.582 10.775 126.582 11.775C126.582 12.7583 126.44 13.6583 126.157 14.475C125.874 15.275 125.474 15.9583 124.957 16.525C124.457 17.0917 123.857 17.5333 123.157 17.85C122.457 18.15 121.69 18.3 120.857 18.3C120.457 18.3 120.057 18.2583 119.657 18.175C119.274 18.0917 118.907 17.9583 118.557 17.775C118.207 17.5917 117.89 17.35 117.607 17.05C117.34 16.75 117.124 16.3833 116.957 15.95H116.857V24.25H114.732ZM116.857 10.5V12.675C116.857 13.3583 116.949 13.9667 117.132 14.5C117.332 15.0333 117.59 15.4917 117.907 15.875C118.224 16.2417 118.59 16.525 119.007 16.725C119.424 16.9083 119.865 17 120.332 17C120.849 17 121.34 16.9083 121.807 16.725C122.274 16.525 122.682 16.2167 123.032 15.8C123.399 15.3667 123.682 14.8167 123.882 14.15C124.099 13.4833 124.207 12.675 124.207 11.725C124.207 10.7917 124.099 9.99167 123.882 9.325C123.682 8.65833 123.407 8.11667 123.057 7.7C122.707 7.28333 122.29 6.98333 121.807 6.8C121.34 6.6 120.849 6.5 120.332 6.5C119.849 6.5 119.39 6.60833 118.957 6.825C118.54 7.025 118.174 7.30833 117.857 7.675C117.54 8.025 117.29 8.45 117.107 8.95C116.94 9.43333 116.857 9.95 116.857 10.5Z" fill="white"/>
</svg>
