<svg width="266" height="48" viewBox="0 0 266 48" fill="none" xmlns="http://www.w3.org/2000/svg">
<path d="M0.192679 38V4.4H15.4567C19.1047 4.4 22.3207 5.104 25.1047 6.512C27.8887 7.888 30.0647 9.824 31.6327 12.32C33.2007 14.816 33.9847 17.776 33.9847 21.2C33.9847 24.592 33.2007 27.552 31.6327 30.08C30.0647 32.576 27.8887 34.528 25.1047 35.936C22.3207 37.312 19.1047 38 15.4567 38H0.192679ZM7.96868 31.616H15.0727C17.3127 31.616 19.2487 31.2 20.8807 30.368C22.5447 29.504 23.8247 28.288 24.7207 26.72C25.6487 25.152 26.1127 23.312 26.1127 21.2C26.1127 19.056 25.6487 17.216 24.7207 15.68C23.8247 14.112 22.5447 12.912 20.8807 12.08C19.2487 11.216 17.3127 10.784 15.0727 10.784H7.96868V31.616ZM39.3209 38V12.176H46.8089V38H39.3209ZM43.0649 8.576C41.6889 8.576 40.5689 8.176 39.7049 7.376C38.8409 6.576 38.4089 5.584 38.4089 4.4C38.4089 3.216 38.8409 2.224 39.7049 1.424C40.5689 0.623998 41.6889 0.223997 43.0649 0.223997C44.4409 0.223997 45.5609 0.607998 46.4249 1.376C47.2889 2.112 47.7209 3.072 47.7209 4.256C47.7209 5.504 47.2889 6.544 46.4249 7.376C45.5929 8.176 44.4729 8.576 43.0649 8.576ZM66.5744 38.384C63.6304 38.384 61.0384 37.808 58.7984 36.656C56.5904 35.504 54.8784 33.936 53.6624 31.952C52.4464 29.936 51.8384 27.648 51.8384 25.088C51.8384 22.496 52.4304 20.208 53.6144 18.224C54.8304 16.208 56.4784 14.64 58.5584 13.52C60.6384 12.368 62.9904 11.792 65.6144 11.792C68.1424 11.792 70.4144 12.336 72.4304 13.424C74.4784 14.48 76.0944 16.016 77.2784 18.032C78.4624 20.016 79.0544 22.4 79.0544 25.184C79.0544 25.472 79.0384 25.808 79.0064 26.192C78.9744 26.544 78.9424 26.88 78.9104 27.2H57.9344V22.832H74.9744L72.0944 24.128C72.0944 22.784 71.8224 21.616 71.2784 20.624C70.7344 19.632 69.9824 18.864 69.0224 18.32C68.0624 17.744 66.9424 17.456 65.6624 17.456C64.3824 17.456 63.2464 17.744 62.2544 18.32C61.2944 18.864 60.5424 19.648 59.9984 20.672C59.4544 21.664 59.1824 22.848 59.1824 24.224V25.376C59.1824 26.784 59.4864 28.032 60.0944 29.12C60.7344 30.176 61.6144 30.992 62.7344 31.568C63.8864 32.112 65.2304 32.384 66.7664 32.384C68.1424 32.384 69.3424 32.176 70.3664 31.76C71.4224 31.344 72.3824 30.72 73.2464 29.888L77.2304 34.208C76.0464 35.552 74.5584 36.592 72.7664 37.328C70.9744 38.032 68.9104 38.384 66.5744 38.384ZM92.7277 38.384C90.5197 38.384 88.3917 38.128 86.3437 37.616C84.3277 37.072 82.7277 36.4 81.5437 35.6L84.0397 30.224C85.2237 30.96 86.6157 31.568 88.2157 32.048C89.8477 32.496 91.4477 32.72 93.0157 32.72C94.7437 32.72 95.9597 32.512 96.6637 32.096C97.3997 31.68 97.7677 31.104 97.7677 30.368C97.7677 29.76 97.4797 29.312 96.9037 29.024C96.3597 28.704 95.6237 28.464 94.6957 28.304C93.7677 28.144 92.7437 27.984 91.6237 27.824C90.5357 27.664 89.4317 27.456 88.3117 27.2C87.1917 26.912 86.1677 26.496 85.2397 25.952C84.3117 25.408 83.5597 24.672 82.9837 23.744C82.4397 22.816 82.1677 21.616 82.1677 20.144C82.1677 18.512 82.6317 17.072 83.5597 15.824C84.5197 14.576 85.8957 13.6 87.6877 12.896C89.4797 12.16 91.6237 11.792 94.1197 11.792C95.8797 11.792 97.6717 11.984 99.4957 12.368C101.32 12.752 102.84 13.312 104.056 14.048L101.56 19.376C100.312 18.64 99.0477 18.144 97.7677 17.888C96.5197 17.6 95.3037 17.456 94.1197 17.456C92.4557 17.456 91.2397 17.68 90.4717 18.128C89.7037 18.576 89.3197 19.152 89.3197 19.856C89.3197 20.496 89.5917 20.976 90.1357 21.296C90.7117 21.616 91.4637 21.872 92.3917 22.064C93.3197 22.256 94.3277 22.432 95.4157 22.592C96.5357 22.72 97.6557 22.928 98.7757 23.216C99.8957 23.504 100.904 23.92 101.8 24.464C102.728 24.976 103.48 25.696 104.056 26.624C104.632 27.52 104.92 28.704 104.92 30.176C104.92 31.776 104.44 33.2 103.48 34.448C102.52 35.664 101.128 36.624 99.3037 37.328C97.5117 38.032 95.3197 38.384 92.7277 38.384ZM122.356 38.384C119.412 38.384 116.82 37.808 114.58 36.656C112.372 35.504 110.66 33.936 109.444 31.952C108.228 29.936 107.62 27.648 107.62 25.088C107.62 22.496 108.212 20.208 109.396 18.224C110.612 16.208 112.26 14.64 114.34 13.52C116.42 12.368 118.772 11.792 121.396 11.792C123.924 11.792 126.196 12.336 128.212 13.424C130.26 14.48 131.876 16.016 133.06 18.032C134.244 20.016 134.836 22.4 134.836 25.184C134.836 25.472 134.82 25.808 134.788 26.192C134.756 26.544 134.724 26.88 134.692 27.2H113.716V22.832H130.756L127.876 24.128C127.876 22.784 127.604 21.616 127.06 20.624C126.516 19.632 125.764 18.864 124.804 18.32C123.844 17.744 122.724 17.456 121.444 17.456C120.164 17.456 119.028 17.744 118.036 18.32C117.076 18.864 116.324 19.648 115.78 20.672C115.236 21.664 114.964 22.848 114.964 24.224V25.376C114.964 26.784 115.268 28.032 115.876 29.12C116.516 30.176 117.396 30.992 118.516 31.568C119.668 32.112 121.012 32.384 122.548 32.384C123.924 32.384 125.124 32.176 126.148 31.76C127.204 31.344 128.164 30.72 129.028 29.888L133.012 34.208C131.828 35.552 130.34 36.592 128.548 37.328C126.756 38.032 124.692 38.384 122.356 38.384ZM139.821 38V2.384H147.309V38H139.821ZM170.866 38.576C168.274 38.576 165.858 38.16 163.618 37.328C161.41 36.464 159.49 35.248 157.858 33.68C156.226 32.112 154.946 30.272 154.018 28.16C153.122 26.048 152.674 23.728 152.674 21.2C152.674 18.672 153.122 16.352 154.018 14.24C154.946 12.128 156.226 10.288 157.858 8.72C159.522 7.152 161.458 5.952 163.666 5.12C165.874 4.256 168.29 3.824 170.914 3.824C173.826 3.824 176.45 4.336 178.786 5.36C181.154 6.352 183.138 7.824 184.738 9.776L179.746 14.384C178.594 13.072 177.314 12.096 175.906 11.456C174.498 10.784 172.962 10.448 171.298 10.448C169.73 10.448 168.29 10.704 166.978 11.216C165.666 11.728 164.53 12.464 163.57 13.424C162.61 14.384 161.858 15.52 161.314 16.832C160.802 18.144 160.546 19.6 160.546 21.2C160.546 22.8 160.802 24.256 161.314 25.568C161.858 26.88 162.61 28.016 163.57 28.976C164.53 29.936 165.666 30.672 166.978 31.184C168.29 31.696 169.73 31.952 171.298 31.952C172.962 31.952 174.498 31.632 175.906 30.992C177.314 30.32 178.594 29.312 179.746 27.968L184.738 32.576C183.138 34.528 181.154 36.016 178.786 37.04C176.45 38.064 173.81 38.576 170.866 38.576ZM205.158 11.792C207.206 11.792 209.03 12.208 210.63 13.04C212.262 13.84 213.542 15.088 214.47 16.784C215.398 18.448 215.862 20.592 215.862 23.216V38H208.374V24.368C208.374 22.288 207.91 20.752 206.982 19.76C206.086 18.768 204.806 18.272 203.142 18.272C201.958 18.272 200.886 18.528 199.926 19.04C198.998 19.52 198.262 20.272 197.718 21.296C197.206 22.32 196.95 23.632 196.95 25.232V38H189.462V2.384H196.95V19.328L195.27 17.168C196.198 15.44 197.526 14.112 199.254 13.184C200.982 12.256 202.95 11.792 205.158 11.792ZM222.649 38V12.176H230.137V38H222.649ZM226.393 8.576C225.017 8.576 223.897 8.176 223.033 7.376C222.169 6.576 221.737 5.584 221.737 4.4C221.737 3.216 222.169 2.224 223.033 1.424C223.897 0.623998 225.017 0.223997 226.393 0.223997C227.769 0.223997 228.889 0.607998 229.753 1.376C230.617 2.112 231.049 3.072 231.049 4.256C231.049 5.504 230.617 6.544 229.753 7.376C228.921 8.176 227.801 8.576 226.393 8.576ZM252.351 38.384C250.175 38.384 248.271 37.904 246.639 36.944C245.007 35.984 243.727 34.528 242.799 32.576C241.903 30.592 241.455 28.096 241.455 25.088C241.455 22.048 241.887 19.552 242.751 17.6C243.615 15.648 244.863 14.192 246.495 13.232C248.127 12.272 250.079 11.792 252.351 11.792C254.783 11.792 256.959 12.352 258.879 13.472C260.831 14.56 262.367 16.096 263.487 18.08C264.639 20.064 265.215 22.4 265.215 25.088C265.215 27.808 264.639 30.16 263.487 32.144C262.367 34.128 260.831 35.664 258.879 36.752C256.959 37.84 254.783 38.384 252.351 38.384ZM237.087 47.312V12.176H244.239V17.456L244.095 25.136L244.575 32.768V47.312H237.087ZM251.055 32.24C252.303 32.24 253.407 31.952 254.367 31.376C255.359 30.8 256.143 29.984 256.719 28.928C257.327 27.84 257.631 26.56 257.631 25.088C257.631 23.584 257.327 22.304 256.719 21.248C256.143 20.192 255.359 19.376 254.367 18.8C253.407 18.224 252.303 17.936 251.055 17.936C249.807 17.936 248.687 18.224 247.695 18.8C246.703 19.376 245.919 20.192 245.343 21.248C244.767 22.304 244.479 23.584 244.479 25.088C244.479 26.56 244.767 27.84 245.343 28.928C245.919 29.984 246.703 30.8 247.695 31.376C248.687 31.952 249.807 32.24 251.055 32.24Z" fill="#0054F2"/>
</svg>
