<svg width="24" height="24" viewBox="0 0 24 24" fill="none" xmlns="http://www.w3.org/2000/svg">
<path d="M12.001 1.49951C9.81374 1.50211 7.71682 2.37213 6.17021 3.91875C4.6236 5.46536 3.75357 7.56227 3.75098 9.74951C3.75098 16.8086 11.251 22.1406 11.5703 22.364C11.6966 22.4522 11.8469 22.4995 12.001 22.4995C12.155 22.4995 12.3053 22.4522 12.4316 22.364C12.751 22.1406 20.251 16.8086 20.251 9.74951C20.2484 7.56227 19.3784 5.46536 17.8317 3.91875C16.2851 2.37213 14.1882 1.50211 12.001 1.49951ZM12.0015 6.74978C12.5949 6.74978 13.1749 6.92573 13.6682 7.25537C14.1616 7.58502 14.5461 8.05355 14.7732 8.60173C15.0002 9.14991 15.0596 9.75311 14.9439 10.3351C14.8281 10.917 14.5424 11.4515 14.1228 11.8711C13.7033 12.2907 13.1687 12.5764 12.5868 12.6921C12.0049 12.8079 11.4017 12.7485 10.8535 12.5214C10.3053 12.2944 9.83676 11.9098 9.50712 11.4165C9.17747 10.9231 9.00153 10.3431 9.00153 9.74978C9.00151 9.35581 9.0791 8.9657 9.22986 8.60172C9.38062 8.23774 9.6016 7.90702 9.88018 7.62844C10.1588 7.34986 10.4895 7.12888 10.8535 6.97812C11.2174 6.82736 11.6076 6.74977 12.0015 6.74978Z" fill="#0054F2"/>
</svg>
