<svg width="24" height="24" viewBox="0 0 24 24" fill="none" xmlns="http://www.w3.org/2000/svg">
<path d="M19.2243 14.7455L15.4711 13.137C15.2751 13.0527 15.0612 13.0187 14.8487 13.0382C14.6363 13.0577 14.4321 13.1301 14.2548 13.2488L12.248 14.5864C11.0216 13.9899 10.0289 13.0016 9.427 11.7778L9.42716 11.7777L10.7601 9.7409C10.8762 9.56408 10.9466 9.36126 10.965 9.15057C10.9835 8.93989 10.9494 8.72791 10.8659 8.53361L9.25594 4.77721C9.14635 4.52223 8.95711 4.3096 8.71656 4.17117C8.47601 4.03274 8.19709 3.97595 7.92156 4.00931C6.83888 4.14852 5.8439 4.67712 5.1225 5.49637C4.4011 6.31562 4.00263 7.36947 4.00153 8.46107C4.00153 14.8237 9.17785 20 15.5405 20C16.6321 19.9989 17.686 19.6004 18.5052 18.879C19.3245 18.1576 19.8531 17.1626 19.9923 16.0799C20.0255 15.8044 19.9687 15.5255 19.8303 15.2849C19.6918 15.0444 19.4792 14.8552 19.2243 14.7455Z" fill="#0054F2"/>
</svg>
